<svg width="320" height="47" viewBox="0 0 320 47" fill="none" xmlns="http://www.w3.org/2000/svg">
<path d="M169.345 19.2197C169.345 19.2197 169.345 19.2229 169.345 19.2197C169.339 19.2261 169.336 19.2293 169.345 19.2197Z" fill="black"/>
<path d="M28.3814 21.6321C26.8024 20.4482 25.0969 19.4149 23.2681 18.5253C21.4359 17.6391 19.7337 16.6994 18.1547 15.7062C16.5758 14.713 15.26 13.5526 14.2073 12.2183C13.1547 10.8873 12.6284 9.1851 12.6284 7.11507C12.6284 6.35595 12.7017 5.61689 12.8516 4.89789C12.9981 4.1789 13.2413 3.5569 13.5811 3.02852C13.9175 2.50014 14.3739 2.06874 14.9435 1.72764C15.5132 1.38988 16.2227 1.21932 17.0655 1.21932C19.1774 1.21932 21.0362 1.56711 22.6418 2.26604C24.2474 2.96163 25.5999 3.85118 26.6991 4.928C27.7984 6.00482 28.6212 7.18864 29.1708 8.47615C29.7205 9.76699 29.9936 10.9809 29.9936 12.1213V12.9272L30.4367 12.9306V1.37983V0.83808V0.647461H18.1248C15.4299 0.647461 12.9781 0.911668 10.7696 1.44005C8.56104 1.96842 6.67561 2.74092 5.11997 3.7542C3.56099 4.76748 2.35179 5.99478 1.48902 7.42942C0.626256 8.86741 0.193202 10.4927 0.193202 12.3119C0.193202 14.6795 0.729522 16.7596 1.80215 18.5554C2.87478 20.3513 4.20058 21.9464 5.77954 23.3409C7.3585 24.7354 9.08404 26.0129 10.9561 27.1767C12.8282 28.3404 14.5538 29.4908 16.1327 30.6312C17.7117 31.7715 19.0375 32.9754 20.1101 34.2429C21.1828 35.5103 21.7191 36.9483 21.7191 38.5535C21.7191 40.7506 21.0895 42.4427 19.8303 43.6232C18.5711 44.8071 17.1021 45.399 15.4232 45.399C13.8276 45.399 12.1587 45.1147 10.4198 44.5429C8.67763 43.971 7.07202 43.1283 5.60299 42.008C4.13395 40.8877 2.91809 39.5367 1.95206 37.9516C0.986024 36.3664 0.50633 34.5606 0.50633 32.5307V31.708H0V45.1883V45.8438V46.0344H14.3706C17.0588 46.0344 19.5905 45.6732 21.9656 44.9575C24.3407 44.2386 26.4093 43.2554 28.1748 42.0113C29.9403 40.764 31.3361 39.2959 32.3654 37.6071C33.3947 35.9183 33.9077 34.1191 33.9077 32.2197C33.9077 29.6848 33.3814 27.5813 32.3288 25.9126C31.2761 24.2405 29.9603 22.8159 28.3814 21.6321Z" fill="black"/>
<path d="M72.839 43.8788C72.3227 43.2401 71.883 42.4442 71.5132 41.4944C71.1435 40.5447 70.9569 38.7957 70.9569 37.5584V27.8336C70.9569 25.3154 70.5039 23.1785 69.5978 21.4228C68.6918 19.6671 67.3926 18.2425 65.7037 17.149C64.0148 16.0554 61.9728 15.2495 59.5844 14.7345C57.1926 14.2195 54.5144 13.9386 51.5497 13.8984C50.064 13.8984 48.6316 14.0623 47.2525 14.3934C45.8734 14.7245 44.6575 15.2194 43.6049 15.8815C42.5556 16.5437 41.7195 17.3262 41.0999 18.2358C40.4803 19.1454 40.1738 20.1754 40.1738 21.3325C40.1738 22.5699 40.6868 23.6333 41.7161 24.5228C42.7421 25.4124 43.958 25.8538 45.3571 25.8538C46.7961 25.8538 48.0187 25.409 49.028 24.5228C50.034 23.6366 50.5403 22.5732 50.5403 21.3325C50.5403 20.1353 50.0373 19.102 49.028 18.2358C48.0187 17.3697 46.7961 16.9349 45.3571 16.9349C44.9873 16.9349 44.7175 16.955 44.5543 16.9985C45.1705 16.2962 46.0366 15.6976 47.1459 15.2027C48.2552 14.7077 49.6742 14.4603 51.4031 14.4603C52.9654 14.4603 54.2612 14.7278 55.2906 15.2662C56.3166 15.8046 57.1427 16.5269 57.7589 17.4332C58.3752 18.3428 58.8182 19.4163 59.0847 20.6536C59.3512 21.891 59.5278 23.2353 59.6077 24.68C58.6617 25.7535 57.5291 26.4658 56.2133 26.8169C54.8975 27.1681 53.7449 27.4456 52.7589 27.653C50.8668 28.0242 49.0347 28.4288 47.2692 28.8602C45.5003 29.295 43.938 29.8501 42.5789 30.5323C41.2231 31.2145 40.1305 32.0505 39.3077 33.0404C38.4849 34.0303 38.0752 35.291 38.0752 36.8193C38.0752 43.1799 42.7421 46.3568 52.0793 46.3568C54.3012 46.3568 56.0267 45.9422 57.2626 45.1195C58.4951 44.2935 59.3379 42.8288 59.7909 40.7219C59.9975 42.2067 60.4638 44.0494 61.1867 44.9389C61.9095 45.8285 62.8922 46.2699 64.1347 46.2699H75.8937V45.8351C75.4806 45.8351 74.9976 45.6713 74.4446 45.3402C73.8883 45.0025 73.3554 44.5176 72.839 43.8788ZM59.6677 27.0878V36.2541C59.6677 38.1536 59.5244 39.722 59.2346 40.9627C58.9482 42.2 58.4951 43.1933 57.8789 43.9357C57.2626 44.6781 56.4698 45.1964 55.5038 45.484C54.5377 45.7716 53.3951 45.9187 52.0793 45.9187C51.1333 45.9187 50.3605 45.0827 49.7642 43.4106C49.1679 41.7385 48.8681 39.518 48.8681 36.7524C48.8681 34.4817 49.3411 32.5087 50.2872 30.8366C51.2332 29.1645 52.4258 28.1646 53.8648 27.8336C54.5644 27.7098 55.4704 27.4724 56.5797 27.1212C57.689 26.7701 58.7183 26.1815 59.6644 25.3555V27.0878H59.6677Z" fill="black"/>
<path d="M100.837 44.4186C100.457 44.5657 100.101 44.6627 99.7644 44.7028C99.428 44.7463 99.1215 44.7664 98.8484 44.7664C98.5752 44.7664 98.3953 44.7664 98.312 44.7664C96.5432 44.7664 95.2174 44.4186 94.3346 43.7196C93.4519 43.0207 92.819 42.1981 92.4392 41.2483C92.0595 40.2986 91.8696 39.3355 91.8696 38.3656C91.8696 37.3925 91.8696 36.6133 91.8696 36.0214V14.3412H94.5978V13.8965H91.8696V6.16141C91.8696 4.8505 91.8796 5.623 91.8996 4.80034C91.9196 3.97768 91.9729 3.32222 92.0562 2.83397C92.1394 2.34907 92.266 1.97787 92.4359 1.72371C92.6025 1.46956 92.8356 1.25886 93.1321 1.08831V0.643555L80.3139 4.82708V13.8898H77.2192V14.3345H80.3139V35.2522C80.3139 38.8439 81.6263 41.5493 84.2513 43.3652C86.8762 45.1844 90.4472 46.0906 94.9642 46.0906C96.6465 46.0906 98.1322 45.997 99.4146 45.8064C100.697 45.6158 101.696 45.1008 102.413 44.2547L101.843 43.7464C101.55 44.0507 101.213 44.2714 100.837 44.4186Z" fill="black"/>
<path d="M145.795 43.0863C145.288 42.4308 144.858 41.6282 144.499 40.6785C144.142 39.7287 143.962 38.6619 143.962 37.4781V13.8984H127.483V14.3432C127.903 14.3432 128.399 14.5238 128.966 14.8816C129.535 15.2428 130.072 15.7578 130.575 16.4333C131.081 17.1088 131.511 17.9348 131.87 18.9047C132.227 19.8778 132.407 20.9747 132.407 22.202V40.7754C131.397 42.0027 130.281 43.006 129.059 43.7852C127.836 44.5677 126.554 44.959 125.208 44.959C123.902 44.959 122.956 44.6212 122.367 43.9457C121.777 43.2702 121.554 42.695 121.387 41.7653C121.217 40.8356 121.221 39.6752 121.221 38.7556C121.221 38.7556 121.231 36.8461 121.231 36.214L121.167 13.9018H104.751V14.3466C105.171 14.3466 105.668 14.5271 106.234 14.885C106.803 15.2461 107.34 15.7611 107.843 16.4367C108.349 17.1122 108.779 17.9382 109.139 18.908C109.495 19.8811 109.675 20.978 109.675 22.2053V35.4549C109.675 37.2306 109.991 38.7924 110.621 40.1467C111.251 41.5011 112.133 42.6314 113.269 43.5377C114.405 44.4473 115.758 45.1329 117.333 45.5977C118.909 46.0626 120.621 46.2966 122.47 46.2966C124.528 46.2966 126.377 45.8318 128.016 44.9021C129.655 43.9725 131.104 42.8087 132.367 41.4142L132.407 45.5977H148.886V45.1529C148.466 45.1529 147.97 44.9724 147.403 44.6145C146.837 44.25 146.298 43.7417 145.795 43.0863Z" fill="black"/>
<path d="M221.185 43.8788C220.672 43.2401 220.229 42.4442 219.859 41.4944C219.489 40.5447 219.303 38.7957 219.303 37.5584V27.8336C219.303 25.3154 218.85 23.1785 217.944 21.4228C217.037 19.6671 215.738 18.2425 214.049 17.149C212.361 16.0554 210.319 15.2495 207.93 14.7345C205.538 14.2195 202.86 13.9386 199.895 13.8984C198.41 13.8984 196.977 14.0623 195.598 14.3934C194.219 14.7245 193.003 15.2194 191.951 15.8815C190.901 16.5437 190.065 17.3262 189.446 18.2358C188.826 19.1454 188.52 20.1754 188.52 21.3325C188.52 22.5699 189.033 23.6333 190.062 24.5228C191.088 25.4124 192.304 25.8538 193.703 25.8538C195.142 25.8538 196.364 25.409 197.374 24.5228C198.38 23.6366 198.886 22.5732 198.886 21.3325C198.886 20.1353 198.383 19.102 197.374 18.2358C196.364 17.3697 195.142 16.9349 193.703 16.9349C193.333 16.9349 193.063 16.955 192.9 16.9985C193.516 16.2962 194.382 15.6976 195.492 15.2027C196.601 14.7077 198.02 14.4603 199.749 14.4603C201.311 14.4603 202.607 14.7278 203.636 15.2662C204.666 15.8046 205.488 16.5269 206.105 17.4332C206.721 18.3428 207.164 19.4163 207.43 20.6536C207.697 21.891 207.873 23.2353 207.953 24.68C207.007 25.7535 205.875 26.4658 204.559 26.8169C203.243 27.1681 202.091 27.4456 201.105 27.653C199.213 28.0242 197.38 28.4288 195.615 28.8602C193.846 29.295 192.284 29.8501 190.925 30.5323C189.569 31.2145 188.476 32.0505 187.653 33.0404C186.831 34.0303 186.421 35.291 186.421 36.8193C186.421 43.1799 191.088 46.3568 200.425 46.3568C202.647 46.3568 204.372 45.9422 205.608 45.1195C206.841 44.2935 207.684 42.8288 208.137 40.7219C208.343 42.2067 208.81 44.0494 209.532 44.9389C210.255 45.8285 211.238 46.2699 212.48 46.2699H224.239V45.8351C223.826 45.8351 223.343 45.6713 222.79 45.3402C222.231 45.0025 221.698 44.5176 221.185 43.8788ZM208.01 27.0878V36.2541C208.01 38.1536 207.867 39.722 207.577 40.9627C207.287 42.2 206.837 43.1933 206.221 43.9357C205.605 44.6781 204.812 45.1964 203.846 45.484C202.88 45.7716 201.738 45.9187 200.422 45.9187C199.476 45.9187 198.703 45.0827 198.107 43.4106C197.51 41.7385 197.21 39.518 197.21 36.7524C197.21 34.4817 197.684 32.5087 198.63 30.8366C199.576 29.1645 200.768 28.1646 202.207 27.8336C202.907 27.7098 203.809 27.4724 204.922 27.1212C206.031 26.7701 207.061 26.1815 208.007 25.3555V27.0878H208.01Z" fill="black"/>
<path d="M233.316 8.98405C233.829 9.42882 234.436 9.77994 235.135 10.0374C235.835 10.2949 236.577 10.422 237.364 10.422C238.15 10.422 238.883 10.2949 239.569 10.0374C240.252 9.77994 240.851 9.42882 241.361 8.98405C241.874 8.53927 242.284 8.01424 242.59 7.41564C242.897 6.81703 243.05 6.1716 243.05 5.48605C243.05 4.8005 242.897 4.16511 242.59 3.58322C242.284 3.00134 241.874 2.49638 241.361 2.06498C240.848 1.63693 240.252 1.29248 239.569 1.03498C238.886 0.777477 238.15 0.650391 237.364 0.650391C236.577 0.650391 235.835 0.777477 235.135 1.03498C234.436 1.29248 233.829 1.63693 233.316 2.06498C232.803 2.49304 232.394 3.00134 232.087 3.58322C231.781 4.16845 231.624 4.8005 231.624 5.48605C231.624 6.1716 231.777 6.81703 232.087 7.41564C232.394 8.01758 232.807 8.53927 233.316 8.98405Z" fill="black"/>
<path d="M244.886 43.6648C244.379 42.9893 243.95 42.1666 243.59 41.1934C243.233 40.2203 243.054 39.1435 243.054 37.9597V13.8984H226.701V14.3432C227.121 14.3432 227.617 14.5338 228.183 14.9151C228.753 15.2963 229.289 15.8146 229.792 16.4667C230.299 17.1222 230.728 17.9248 231.088 18.8745C231.445 19.8243 231.624 20.871 231.624 22.0114V38.0232C231.624 39.2505 231.435 40.3474 231.055 41.3205C230.675 42.2937 230.222 43.1063 229.696 43.7618C229.169 44.4172 228.623 44.9255 228.053 45.2834C227.484 45.6445 226.991 45.8218 226.571 45.8218V46.2665H247.977V45.8218C247.557 45.8218 247.061 45.6311 246.495 45.2499C245.928 44.8687 245.392 44.3403 244.886 43.6648Z" fill="black"/>
<path d="M276.991 27.7438C275.772 26.8944 274.45 26.1988 273.024 25.6604C271.598 25.122 270.276 24.5301 269.056 23.888C267.837 23.2459 266.815 22.4567 265.989 21.5237C265.162 20.5907 264.689 19.7145 264.559 18.1427C264.483 17.4873 264.436 16.4874 264.569 15.9189C264.649 15.5711 264.909 15.2434 265.242 15.0126C265.572 14.7852 266.155 14.5678 266.988 14.5678C268.857 14.5678 270.482 14.7852 271.978 15.4273C273.47 16.0727 274.729 16.9322 275.745 18.009C276.761 19.0891 277.541 20.3432 278.081 21.7745C278.62 23.2058 278.89 24.7307 278.89 26.3493V26.4162L279.326 26.4195V14.2334V14.2301V13.9023H268.477C265.419 13.9023 262.857 14.1498 260.789 14.6481C258.72 15.1464 257.048 15.8085 255.769 16.6412C254.486 17.4706 253.577 18.4036 253.04 19.4403C252.504 20.477 252.234 21.5571 252.234 22.6774C252.234 24.6672 252.677 26.3593 253.567 27.7505C254.456 29.1417 255.559 30.3322 256.884 31.3287C258.207 32.3253 259.643 33.1848 261.192 33.9104C262.741 34.6361 264.176 35.3518 265.499 36.0574C266.821 36.763 267.927 37.5088 268.817 38.298C269.706 39.0872 270.149 40.0403 270.149 41.1606C270.149 41.9498 270.056 42.622 269.873 43.1838C269.686 43.7423 269.346 44.2104 268.853 44.585C268.36 44.9595 267.691 45.2371 266.848 45.4244C266.005 45.6116 264.923 45.7053 263.607 45.7053C262.534 45.7053 261.362 45.4478 260.086 44.9261C258.81 44.4078 257.614 43.6419 256.501 42.622C255.389 41.6053 254.453 40.3613 253.69 38.8866C252.927 37.4151 252.487 35.7096 252.487 33.8001L252.484 33.0075H252.051V45.8491V46.1367V46.2604H262.567C265.372 46.3005 267.927 46.1133 270.236 45.7019C272.544 45.2873 274.513 44.6653 276.142 43.8359C277.771 43.0065 279.04 41.9699 279.946 40.7258C280.852 39.4818 281.308 38.0304 281.308 36.3684C281.308 34.1713 280.895 32.3955 280.069 31.0478C279.233 29.6935 278.211 28.5932 276.991 27.7438Z" fill="black"/>
<path d="M319.624 34.0187C319.624 36.179 319.117 38.0049 318.108 39.4998C317.099 40.9946 315.889 42.2085 314.49 43.1449C313.088 44.0779 311.645 44.7534 310.16 45.1681C308.674 45.5828 307.458 45.7901 306.512 45.7901C305.11 45.7901 303.587 45.4992 302.701 44.9173C301.815 44.3354 301.136 43.4225 300.659 42.1751C300.183 40.9277 299.867 39.3192 299.7 37.3461C299.537 35.3731 299.453 32.9954 299.453 30.213H319.99C319.99 27.4307 319.43 25.0129 318.314 22.9562C317.198 20.8996 315.823 19.2108 314.187 17.8798C312.552 16.5522 310.796 15.5556 308.914 14.8901C307.032 14.228 305.283 13.8936 303.671 13.8936C301.849 13.8936 299.99 14.2146 298.088 14.86C296.186 15.5054 294.447 16.502 292.874 17.8497C291.302 19.2007 290.01 20.8929 288.997 22.9261C287.984 24.9627 287.478 27.3906 287.478 30.213C287.478 33.0389 287.994 35.4567 289.03 37.4699C290.063 39.483 291.439 41.1451 293.158 42.4526C294.873 43.7602 296.859 44.7166 299.114 45.3186C301.369 45.9205 304.07 46.2215 306.469 46.2215C307.668 46.2215 309.044 46.0041 310.596 45.5661C312.148 45.1313 313.614 44.4257 315.003 43.4492C316.389 42.4727 317.568 41.2053 318.541 39.6502C319.514 38.0919 320 36.2158 320 34.012H319.624V34.0187ZM300.623 18.0102C301.362 15.5589 302.388 14.335 303.704 14.335C305.016 14.335 306.056 15.5589 306.815 18.0102C307.575 20.4615 307.975 24.3842 308.018 29.7817H299.457C299.493 24.3842 299.883 20.4581 300.623 18.0102Z" fill="black"/>
<path d="M182.48 15.2432C181.264 14.3771 179.762 13.9289 177.98 13.8988C176.501 13.8687 175.002 14.27 173.479 15.1027C171.974 15.9254 170.598 16.9955 169.349 18.2998V13.8955L169.319 16.5742L169.285 13.8955H152.869V14.3403C153.289 14.3403 153.785 14.5208 154.352 14.8787C154.921 15.2398 155.458 15.7448 155.961 16.4003C156.467 17.0557 156.897 17.8583 157.257 18.8081C157.613 19.7578 157.793 20.8279 157.793 22.0084V37.3481C157.793 38.6155 157.603 39.7258 157.223 40.6755C156.843 41.6253 156.39 42.4412 155.864 43.1167C155.338 43.7923 154.791 44.3006 154.222 44.6383C153.652 44.9761 153.159 45.1466 152.74 45.1466V45.5914H176.101V45.1466H174.225C173.809 45.1466 173.319 44.9661 172.756 44.6082C172.193 44.2504 171.66 43.7321 171.161 43.0565C170.661 42.381 170.231 41.5584 169.878 40.5852C169.522 39.6121 169.345 38.5152 169.345 37.2879V26.9076V20.6774V19.3665C170.385 18.069 171.464 16.9955 172.58 16.1461C173.696 15.2967 174.652 14.872 175.448 14.872C175.998 14.872 176.441 14.9355 176.777 15.0559C175.948 15.4271 175.268 15.9522 174.745 16.631C174.222 17.3099 173.959 18.0824 173.959 18.9485C173.959 19.5672 174.099 20.1457 174.375 20.6875C174.652 21.2292 175.022 21.7008 175.485 22.1021C175.948 22.5034 176.491 22.821 177.123 23.0518C177.753 23.2825 178.423 23.3996 179.132 23.3996C179.838 23.3996 180.508 23.2825 181.141 23.0518C181.77 22.821 182.317 22.5034 182.78 22.1021C183.243 21.7008 183.609 21.2292 183.889 20.6875C184.166 20.1457 184.305 19.5672 184.305 18.9485C184.302 17.3433 183.696 16.1093 182.48 15.2432ZM169.345 19.2227C169.345 19.2227 169.345 19.2194 169.345 19.2227C169.335 19.2294 169.339 19.2261 169.345 19.2227Z" fill="black"/>
</svg>
