<?xml version="1.0" encoding="utf-8"?>
<!-- Generator: Adobe Illustrator 25.2.0, SVG Export Plug-In . SVG Version: 6.00 Build 0)  -->
<svg version="1.1" id="Layer_1" xmlns="http://www.w3.org/2000/svg" xmlns:xlink="http://www.w3.org/1999/xlink" x="0px" y="0px"
	 viewBox="0 0 1600 1600" style="enable-background:new 0 0 1600 1600;" xml:space="preserve">
<g>
	<path d="M828.4,787.2C828.4,787.2,828.4,787.21,828.4,787.2C828.38,787.22,828.37,787.23,828.4,787.2z"/>
	<path d="M405.23,794.41c-4.74-3.54-9.86-6.63-15.35-9.29c-5.5-2.65-10.61-5.46-15.35-8.43c-4.74-2.97-8.69-6.44-11.85-10.43
		c-3.16-3.98-4.74-9.07-4.74-15.26c0-2.27,0.22-4.48,0.67-6.63c0.44-2.15,1.17-4.01,2.19-5.59c1.01-1.58,2.38-2.87,4.09-3.89
		c1.71-1.01,3.84-1.52,6.37-1.52c6.34,0,11.92,1.04,16.74,3.13c4.82,2.08,8.88,4.74,12.18,7.96c3.3,3.22,5.77,6.76,7.42,10.61
		c1.65,3.86,2.47,7.49,2.47,10.9v2.41l1.33,0.01v-34.54v-1.62v-0.57h-36.96c-8.09,0-15.45,0.79-22.08,2.37
		c-6.63,1.58-12.29,3.89-16.96,6.92c-4.68,3.03-8.31,6.7-10.9,10.99c-2.59,4.3-3.89,9.16-3.89,14.6c0,7.08,1.61,13.3,4.83,18.67
		c3.22,5.37,7.2,10.14,11.94,14.31c4.74,4.17,9.92,7.99,15.54,11.47c5.62,3.48,10.8,6.92,15.54,10.33
		c4.74,3.41,8.72,7.01,11.94,10.8c3.22,3.79,4.83,8.09,4.83,12.89c0,6.57-1.89,11.63-5.67,15.16c-3.78,3.54-8.19,5.31-13.23,5.31
		c-4.79,0-9.8-0.85-15.02-2.56c-5.23-1.71-10.05-4.23-14.46-7.58c-4.41-3.35-8.06-7.39-10.96-12.13c-2.9-4.74-4.34-10.14-4.34-16.21
		l0-2.46h-1.52v40.31v1.96v0.57h43.14c8.07,0,15.67-1.08,22.8-3.22c7.13-2.15,13.34-5.09,18.64-8.81c5.3-3.73,9.49-8.12,12.58-13.17
		c3.09-5.05,4.63-10.43,4.63-16.11c0-7.58-1.58-13.87-4.74-18.86C413.92,802.21,409.97,797.95,405.23,794.41z"/>
	<path d="M538.69,860.94c-1.55-1.91-2.87-4.29-3.98-7.13c-1.11-2.84-1.67-8.07-1.67-11.77v-29.08c0-7.53-1.36-13.92-4.08-19.17
		c-2.72-5.25-6.62-9.51-11.69-12.78c-5.07-3.27-11.2-5.68-18.37-7.22c-7.18-1.54-15.22-2.38-24.12-2.5c-4.46,0-8.76,0.49-12.9,1.48
		c-4.14,0.99-7.79,2.47-10.95,4.45c-3.15,1.98-5.66,4.32-7.52,7.04c-1.86,2.72-2.78,5.8-2.78,9.26c0,3.7,1.54,6.88,4.63,9.54
		c3.08,2.66,6.73,3.98,10.93,3.98c4.32,0,7.99-1.33,11.02-3.98c3.02-2.65,4.54-5.83,4.54-9.54c0-3.58-1.51-6.67-4.54-9.26
		c-3.03-2.59-6.7-3.89-11.02-3.89c-1.11,0-1.92,0.06-2.41,0.19c1.85-2.1,4.45-3.89,7.78-5.37c3.33-1.48,7.59-2.22,12.78-2.22
		c4.69,0,8.58,0.8,11.67,2.41c3.08,1.61,5.56,3.77,7.41,6.48c1.85,2.72,3.18,5.93,3.98,9.63c0.8,3.7,1.33,7.72,1.57,12.04
		c-2.84,3.21-6.24,5.34-10.19,6.39c-3.95,1.05-7.41,1.88-10.37,2.5c-5.68,1.11-11.18,2.32-16.48,3.61c-5.31,1.3-10,2.96-14.08,5
		c-4.07,2.04-7.35,4.54-9.82,7.5c-2.47,2.96-3.7,6.73-3.7,11.3c0,19.02,14.01,28.52,42.04,28.52c6.67,0,11.85-1.24,15.56-3.7
		c3.7-2.47,6.23-6.85,7.59-13.15c0.62,4.44,2.02,9.95,4.19,12.61c2.17,2.66,5.12,3.98,8.85,3.98h35.3v-1.3
		c-1.24,0-2.69-0.49-4.35-1.48C541.84,864.3,540.24,862.85,538.69,860.94z M499.15,810.73v27.41c0,5.68-0.43,10.37-1.3,14.08
		c-0.86,3.7-2.22,6.67-4.07,8.89c-1.85,2.22-4.23,3.77-7.13,4.63c-2.9,0.86-6.33,1.3-10.28,1.3c-2.84,0-5.16-2.5-6.95-7.5
		c-1.79-5-2.69-11.64-2.69-19.91c0-6.79,1.42-12.69,4.26-17.69c2.84-5,6.42-7.99,10.74-8.98c2.1-0.37,4.82-1.08,8.15-2.13
		c3.33-1.05,6.42-2.81,9.26-5.28V810.73z"/>
	<path d="M622.74,862.55c-1.14,0.44-2.21,0.73-3.22,0.85c-1.01,0.13-1.93,0.19-2.75,0.19c-0.82,0-1.36,0-1.61,0
		c-5.31,0-9.29-1.04-11.94-3.13c-2.65-2.09-4.55-4.55-5.69-7.39c-1.14-2.84-1.71-5.72-1.71-8.62c0-2.91,0-5.24,0-7.01v-64.83l8.19,0
		v-1.33l-8.19,0v-23.13c0-3.92,0.03-1.61,0.09-4.07c0.06-2.46,0.22-4.42,0.47-5.88c0.25-1.45,0.63-2.56,1.14-3.32
		c0.5-0.76,1.2-1.39,2.09-1.9v-1.33l-38.48,12.51v27.1h-9.29v1.33h9.29v62.55c0,10.74,3.94,18.83,11.82,24.26
		c7.88,5.44,18.6,8.15,32.16,8.15c5.05,0,9.51-0.28,13.36-0.85c3.85-0.57,6.85-2.11,9-4.64l-1.71-1.52
		C624.88,861.45,623.87,862.11,622.74,862.55z"/>
	<path d="M757.7,858.57c-1.52-1.96-2.81-4.36-3.89-7.2c-1.07-2.84-1.61-6.03-1.61-9.57v-70.51h-49.47v1.33
		c1.26,0,2.75,0.54,4.45,1.61c1.71,1.08,3.32,2.62,4.83,4.64c1.52,2.02,2.81,4.49,3.89,7.39c1.07,2.91,1.61,6.19,1.61,9.86v55.54
		c-3.03,3.67-6.38,6.67-10.05,9c-3.67,2.34-7.52,3.51-11.56,3.51c-3.92,0-6.76-1.01-8.53-3.03c-1.77-2.02-2.44-3.74-2.94-6.52
		c-0.51-2.78-0.5-6.25-0.5-9c0,0,0.03-5.71,0.03-7.6l-0.19-66.72h-49.28v1.33c1.26,0,2.75,0.54,4.45,1.61
		c1.71,1.08,3.32,2.62,4.83,4.64c1.52,2.02,2.81,4.49,3.89,7.39c1.07,2.91,1.61,6.19,1.61,9.86v39.62c0,5.31,0.95,9.98,2.84,14.03
		c1.89,4.05,4.54,7.43,7.95,10.14c3.41,2.72,7.47,4.77,12.2,6.16c4.73,1.39,9.87,2.09,15.42,2.09c6.18,0,11.73-1.39,16.65-4.17
		c4.92-2.78,9.27-6.26,13.06-10.43l0.12,12.51h49.47v-1.33c-1.26,0-2.75-0.54-4.45-1.61C760.83,862.05,759.21,860.53,757.7,858.57z"
		/>
	<path d="M984.02,860.94c-1.54-1.91-2.87-4.29-3.98-7.13c-1.11-2.84-1.67-8.07-1.67-11.77v-29.08c0-7.53-1.36-13.92-4.08-19.17
		c-2.72-5.25-6.62-9.51-11.69-12.78c-5.07-3.27-11.2-5.68-18.37-7.22c-7.18-1.54-15.22-2.38-24.12-2.5c-4.46,0-8.76,0.49-12.9,1.48
		c-4.14,0.99-7.79,2.47-10.95,4.45c-3.15,1.98-5.66,4.32-7.52,7.04c-1.86,2.72-2.78,5.8-2.78,9.26c0,3.7,1.54,6.88,4.63,9.54
		c3.08,2.66,6.73,3.98,10.93,3.98c4.32,0,7.99-1.33,11.02-3.98c3.02-2.65,4.54-5.83,4.54-9.54c0-3.58-1.51-6.67-4.54-9.26
		c-3.03-2.59-6.7-3.89-11.02-3.89c-1.11,0-1.92,0.06-2.41,0.19c1.85-2.1,4.45-3.89,7.78-5.37c3.33-1.48,7.59-2.22,12.78-2.22
		c4.69,0,8.58,0.8,11.67,2.41c3.09,1.61,5.56,3.77,7.41,6.48c1.85,2.72,3.18,5.93,3.98,9.63c0.8,3.7,1.33,7.72,1.57,12.04
		c-2.84,3.21-6.24,5.34-10.19,6.39c-3.95,1.05-7.41,1.88-10.37,2.5c-5.68,1.11-11.18,2.32-16.48,3.61c-5.31,1.3-10,2.96-14.08,5
		c-4.07,2.04-7.35,4.54-9.82,7.5c-2.47,2.96-3.7,6.73-3.7,11.3c0,19.02,14.01,28.52,42.04,28.52c6.67,0,11.85-1.24,15.56-3.7
		c3.7-2.47,6.23-6.85,7.59-13.15c0.62,4.44,2.02,9.95,4.19,12.61c2.17,2.66,5.12,3.98,8.85,3.98h35.3v-1.3
		c-1.24,0-2.69-0.49-4.35-1.48C987.16,864.3,985.56,862.85,984.02,860.94z M944.47,810.73v27.41c0,5.68-0.43,10.37-1.3,14.08
		c-0.87,3.7-2.22,6.67-4.07,8.89c-1.85,2.22-4.23,3.77-7.13,4.63c-2.9,0.86-6.33,1.3-10.28,1.3c-2.84,0-5.16-2.5-6.95-7.5
		c-1.79-5-2.69-11.64-2.69-19.91c0-6.79,1.42-12.69,4.26-17.69c2.84-5,6.42-7.99,10.74-8.98c2.1-0.37,4.81-1.08,8.15-2.13
		c3.33-1.05,6.42-2.81,9.26-5.28V810.73z"/>
	<path d="M1020.44,756.59c1.54,1.33,3.36,2.38,5.46,3.15c2.1,0.77,4.33,1.15,6.69,1.15c2.36,0,4.56-0.38,6.62-1.15
		c2.05-0.77,3.85-1.82,5.38-3.15c1.54-1.33,2.77-2.9,3.69-4.69c0.92-1.79,1.38-3.72,1.38-5.77c0-2.05-0.46-3.95-1.38-5.69
		c-0.92-1.74-2.15-3.25-3.69-4.54c-1.54-1.28-3.33-2.31-5.38-3.08c-2.05-0.77-4.26-1.15-6.62-1.15c-2.36,0-4.59,0.38-6.69,1.15
		c-2.1,0.77-3.92,1.8-5.46,3.08c-1.54,1.28-2.77,2.8-3.69,4.54c-0.92,1.75-1.39,3.64-1.39,5.69c0,2.05,0.46,3.98,1.39,5.77
		C1017.67,753.7,1018.91,755.26,1020.44,756.59z"/>
	<path d="M1055.17,860.3c-1.52-2.02-2.81-4.48-3.89-7.39c-1.07-2.91-1.61-6.13-1.61-9.67v-71.95h-49.09v1.33
		c1.26,0,2.75,0.57,4.45,1.71c1.71,1.14,3.32,2.69,4.83,4.64c1.52,1.96,2.81,4.36,3.89,7.2c1.07,2.84,1.61,5.97,1.61,9.38v47.88
		c0,3.67-0.57,6.95-1.71,9.86c-1.14,2.91-2.5,5.34-4.08,7.3c-1.58,1.96-3.22,3.48-4.93,4.55c-1.71,1.08-3.19,1.61-4.45,1.61v1.33
		h64.26v-1.33c-1.26,0-2.75-0.57-4.45-1.71C1058.3,863.9,1056.69,862.32,1055.17,860.3z"/>
	<path d="M1151.55,812.69c-3.66-2.54-7.63-4.62-11.91-6.23c-4.28-1.61-8.25-3.38-11.91-5.3c-3.66-1.92-6.73-4.28-9.21-7.07
		c-2.48-2.79-3.9-5.41-4.29-10.11c-0.23-1.96-0.37-4.95,0.03-6.65c0.24-1.04,1.02-2.02,2.02-2.71c0.99-0.68,2.74-1.33,5.24-1.33
		c5.61,0,10.49,0.65,14.98,2.57c4.48,1.93,8.26,4.5,11.31,7.72c3.05,3.23,5.39,6.98,7.01,11.26s2.43,8.84,2.43,13.68l0,0.2
		l1.31,0.01v-36.44c0,0,0-0.01,0-0.01v-0.98h-32.57c-9.18,0-16.87,0.74-23.08,2.23c-6.21,1.49-11.23,3.47-15.07,5.96
		c-3.85,2.48-6.58,5.27-8.19,8.37c-1.61,3.1-2.42,6.33-2.42,9.68c0,5.95,1.33,11.01,4,15.17c2.67,4.16,5.98,7.72,9.96,10.7
		c3.97,2.98,8.28,5.55,12.93,7.72c4.65,2.17,8.96,4.31,12.93,6.42c3.97,2.11,7.29,4.34,9.96,6.7c2.67,2.36,4,5.21,4,8.56
		c0,2.36-0.28,4.37-0.83,6.05c-0.56,1.67-1.58,3.07-3.06,4.19c-1.48,1.12-3.49,1.95-6.02,2.51c-2.53,0.56-5.78,0.84-9.73,0.84
		c-3.22,0-6.74-0.77-10.57-2.33c-3.83-1.55-7.42-3.84-10.76-6.89c-3.34-3.04-6.15-6.76-8.44-11.17c-2.29-4.4-3.61-9.5-3.61-15.21
		l-0.01-2.37h-1.3v38.4v0.86v0.37h31.57c8.42,0.12,16.09-0.44,23.02-1.67c6.93-1.24,12.84-3.1,17.73-5.58
		c4.89-2.48,8.7-5.58,11.42-9.3c2.72-3.72,4.09-8.06,4.09-13.03c0-6.57-1.24-11.88-3.72-15.91
		C1158.28,818.52,1155.21,815.23,1151.55,812.69z"/>
	<path d="M1279.53,831.45c0,6.46-1.52,11.92-4.55,16.39c-3.03,4.47-6.66,8.1-10.86,10.9c-4.21,2.79-8.54,4.81-13,6.05
		c-4.46,1.24-8.11,1.86-10.95,1.86c-4.21,0-8.78-0.87-11.44-2.61c-2.66-1.74-4.7-4.47-6.13-8.2c-1.43-3.73-2.38-8.54-2.88-14.44
		c-0.49-5.9-0.74-13.01-0.74-21.33h61.65c0-8.32-1.68-15.55-5.03-21.7c-3.35-6.15-7.48-11.2-12.39-15.18
		c-4.91-3.97-10.18-6.95-15.83-8.94c-5.65-1.98-10.9-2.98-15.74-2.98c-5.47,0-11.05,0.96-16.76,2.89
		c-5.71,1.93-10.93,4.91-15.65,8.94c-4.72,4.04-8.6,9.1-11.64,15.18c-3.04,6.09-4.56,13.35-4.56,21.79c0,8.45,1.55,15.68,4.66,21.7
		c3.1,6.02,7.23,10.99,12.39,14.9c5.15,3.91,11.11,6.77,17.88,8.57c6.77,1.8,14.88,2.7,22.08,2.7c3.6,0,7.73-0.65,12.39-1.96
		c4.66-1.3,9.06-3.41,13.23-6.33c4.16-2.92,7.7-6.71,10.62-11.36c2.92-4.66,4.38-10.27,4.38-16.86H1279.53z M1222.49,783.58
		c2.22-7.33,5.3-10.99,9.25-10.99c3.94,0,7.06,3.66,9.34,10.99c2.28,7.33,3.48,19.06,3.61,35.2h-25.7
		C1219.1,802.64,1220.27,790.9,1222.49,783.58z"/>
	<path d="M867.83,775.31c-3.65-2.59-8.16-3.93-13.51-4.02c-4.44-0.09-8.94,1.11-13.51,3.6c-4.52,2.46-8.65,5.66-12.4,9.56v-13.17
		l-0.09,8.01l-0.1-8.01h-49.28v1.33c1.26,0,2.75,0.54,4.45,1.61c1.71,1.08,3.32,2.59,4.83,4.55c1.52,1.96,2.81,4.36,3.89,7.2
		c1.07,2.84,1.61,6.04,1.61,9.57v45.87c0,3.79-0.57,7.11-1.71,9.95c-1.14,2.84-2.5,5.28-4.08,7.3c-1.58,2.02-3.22,3.54-4.93,4.55
		c-1.71,1.01-3.19,1.52-4.45,1.52v1.33h70.13v-1.33h-5.63c-1.25,0-2.72-0.54-4.41-1.61c-1.69-1.07-3.29-2.62-4.79-4.64
		c-1.5-2.02-2.79-4.48-3.85-7.39c-1.07-2.91-1.6-6.19-1.6-9.86v-31.04v-18.63v-3.92c3.12-3.88,6.36-7.09,9.71-9.63
		c3.35-2.54,6.22-3.81,8.61-3.81c1.65,0,2.98,0.19,3.99,0.55c-2.49,1.11-4.53,2.68-6.1,4.71c-1.57,2.03-2.36,4.34-2.36,6.93
		c0,1.85,0.42,3.58,1.25,5.2c0.83,1.62,1.94,3.03,3.33,4.23c1.39,1.2,3.02,2.15,4.92,2.84c1.89,0.69,3.9,1.04,6.03,1.04
		c2.12,0,4.13-0.35,6.03-1.04c1.89-0.69,3.53-1.64,4.92-2.84c1.39-1.2,2.49-2.61,3.33-4.23c0.83-1.62,1.25-3.35,1.25-5.2
		C873.3,781.59,871.48,777.9,867.83,775.31z M828.4,787.21C828.4,787.21,828.4,787.2,828.4,787.21
		C828.37,787.23,828.38,787.22,828.4,787.21z"/>
</g>
</svg>
